# xmcd
#
# Track frame offsets: 
#        150
#        26767
#        48779
#        69226
#        91415
#        112034
#        135580
#        160052
#        179908
#        203096
#        223932
#        243119
#        262349
#        285103
#
# Disc length: 4123 seconds
#
# Revision: 1
# Processed by: cddbd v1.5.2PL0 Copyright (c) Steve Scherf et al.
# Submitted via: ExactAudioCopy v1.0b3
#
DISCID=cb10190e
DTITLE=Mana - Grandes Exitos
DYEAR=1999
DGENRE=Latin
TTITLE0=En El Muelle De San Blas
TTITLE1=Vivir Sin Aire
TTITLE2=Oye Mi Amor
TTITLE3=Te Llore Un Rio
TTITLE4=Como Te Deseo
TTITLE5=Clavado En Un Bar
TTITLE6=No Ha Parado De Llover
TTITLE7=Dejame Entrar
TTITLE8=Cuando Los Angeles Lloran
TTITLE9=De Pies A Cabeza
TTITLE10=Perdido En Un Barco
TTITLE11=Rayando El Sol
TTITLE12=Hechicera
TTITLE13=Un Lobo Por Tu Amor
EXTD=capitals
EXTT0=
EXTT1=
EXTT2=
EXTT3=
EXTT4=
EXTT5=
EXTT6=
EXTT7=
EXTT8=
EXTT9=
EXTT10=
EXTT11=
EXTT12=
EXTT13=
PLAYORDER=
